HIERARCHY
ROOT Hips
{
 OFFSET 0.000000 0.000000 0.000000
 CHANNELS 6 Xposition Yposition Zposition Yrotation Xrotation Zrotation
 JOINT Chest
 {
  OFFSET 0.000000 10.354800 0.006500
  CHANNELS 3 Yrotation Xrotation Zrotation
  JOINT Chest2
  {
   OFFSET 0.000000 10.435800 -0.013200
   CHANNELS 3 Yrotation Xrotation Zrotation
   JOINT Chest3
   {
    OFFSET 0.000000 10.393700 0.000000
    CHANNELS 3 Yrotation Xrotation Zrotation
    JOINT Chest4
    {
     OFFSET 0.000000 10.383100 0.000000
     CHANNELS 3 Yrotation Xrotation Zrotation
     JOINT Neck
     {
      OFFSET 0.000000 15.694000 0.000000
      CHANNELS 3 Yrotation Xrotation Zrotation
      JOINT Head
      {
       OFFSET 0.000000 9.711000 -0.028000
       CHANNELS 3 Yrotation Xrotation Zrotation
       End Site
       {
        OFFSET 0.000000 18.578700 -0.014800
       }
      }
     }
     JOINT RightCollar
     {
      OFFSET -3.157200 10.367500 0.000000
      CHANNELS 3 Yrotation Xrotation Zrotation
      JOINT RightShoulder
      {
       OFFSET -14.482500 0.000000 0.000000
       CHANNELS 3 Yrotation Xrotation Zrotation
       JOINT RightElbow
       {
        OFFSET 0.000000 -31.707800 0.000000
        CHANNELS 3 Yrotation Xrotation Zrotation
        JOINT RightWrist
        {
         OFFSET 0.000000 -25.659300 0.000000
         CHANNELS 3 Yrotation Xrotation Zrotation
         End Site
         {
          OFFSET 0.000000 -18.994300 0.000000
         }
        }
       }
      }
     }
     JOINT LeftCollar
     {
      OFFSET 3.157200 10.367500 0.000000
      CHANNELS 3 Yrotation Xrotation Zrotation
      JOINT LeftShoulder
      {
       OFFSET 14.482500 0.000000 0.000000
       CHANNELS 3 Yrotation Xrotation Zrotation
       JOINT LeftElbow
       {
        OFFSET 0.000000 -31.707800 0.000000
        CHANNELS 3 Yrotation Xrotation Zrotation
        JOINT LeftWrist
        {
         OFFSET 0.000000 -25.659300 0.000000
         CHANNELS 3 Yrotation Xrotation Zrotation
         End Site
         {
          OFFSET 0.000000 -18.994300 0.000000
         }
        }
       }
      }
     }
    }
   }
  }
 }
 JOINT RightHip
 {
  OFFSET -8.365600 -0.032100 -0.003200
  CHANNELS 3 Yrotation Xrotation Zrotation
  JOINT RightKnee
  {
   OFFSET 0.000000 -43.980000 0.003100
   CHANNELS 3 Yrotation Xrotation Zrotation
   JOINT RightAnkle
   {
    OFFSET 0.000000 -42.882800 0.005200
    CHANNELS 3 Yrotation Xrotation Zrotation
    JOINT RightToe
    {
     OFFSET 0.000000 -4.915500 10.826300
     CHANNELS 3 Yrotation Xrotation Zrotation
     End Site
     {
      OFFSET 0.000000 -1.517500 6.175900
     }
    }
   }
  }
 }
 JOINT LeftHip
 {
  OFFSET 8.365600 -0.032100 -0.003200
  CHANNELS 3 Yrotation Xrotation Zrotation
  JOINT LeftKnee
  {
   OFFSET 0.000000 -43.980000 0.003100
   CHANNELS 3 Yrotation Xrotation Zrotation
   JOINT LeftAnkle
   {
    OFFSET 0.000000 -42.882800 0.005200
    CHANNELS 3 Yrotation Xrotation Zrotation
    JOINT LeftToe
    {
     OFFSET 0.000000 -4.915500 10.826300
     CHANNELS 3 Yrotation Xrotation Zrotation
     End Site
     {
      OFFSET 0.000000 -1.517500 6.175900
     }
    }
   }
  }
 }
}
MOTION
Frames: 5
Frame Time: 0.008333
0.512431 126.403366 40.972778 177.367349 -18.502286 -3.947012 -1.416525 11.604436 3.983528 -0.108222 0.863060 0.297922 -0.248767 1.479389 0.532991 -1.297031 10.581775 3.613876 2.797017 18.846805 -4.486465 4.059606 -5.620491 -5.511922 3.484066 8.026734 -4.740059 -5.581989 -8.648899 -0.563446 -116.327549 -57.544895 139.011475 -20.672917 -4.727065 -27.518095 -1.311333 7.765981 0.665177 -0.653541 -9.222399 -4.487877 69.711843 -51.575105 -115.978818 27.834322 0.321539 35.265560 7.250846 -63.500493 1.008951 -115.354037 80.098971 -108.676536 2.747073 -13.957300 -15.990289 0.005940 -0.008298 0.002697 -17.862547 -63.536284 13.059606 78.991758 81.305030 72.275912 -5.238179 -6.997278 2.268667 -0.003394 -0.000773 -0.001541
0.513880 126.403149 40.970443 177.351506 -18.503095 -3.953492 -1.422727 11.610278 3.998333 -0.110768 0.860193 0.299311 -0.245529 1.479683 0.534540 -1.295994 10.573292 3.629988 2.797637 18.860481 -4.502882 4.042806 -5.598779 -5.491046 3.495860 8.028033 -4.753478 -5.494863 -8.681401 -0.446239 -116.379748 -57.537639 139.013111 -20.675869 -4.747642 -27.537291 -1.322355 7.768619 0.669200 -0.719803 -9.267177 -4.488481 69.834542 -51.564284 -115.972701 27.813066 0.317823 35.199099 7.241730 -63.498337 1.032291 -115.338121 80.103264 -108.657473 2.749542 -13.948883 -15.991090 0.005158 -0.013323 0.002342 -17.882007 -63.534857 13.074076 79.103481 81.319361 72.417705 -5.212287 -7.023207 2.236540 0.004998 0.002140 0.002269
0.515448 126.401775 40.971222 177.326725 -18.486595 -3.959928 -1.419872 11.597954 4.015542 -0.132315 0.863043 0.309206 -0.213064 1.474007 0.522594 -1.302170 10.567115 3.652335 2.796140 18.872662 -4.518807 4.025224 -5.578613 -5.470821 3.500928 8.000114 -4.729861 -5.398492 -8.682664 -0.393057 -116.408051 -57.523154 139.009503 -20.679781 -4.758753 -27.564221 -1.317702 7.773019 0.646684 -0.773720 -9.297702 -4.469955 69.879780 -51.527483 -115.959734 27.762921 0.297795 35.158279 7.247561 -63.507889 1.035021 -115.278665 80.121334 -108.579367 2.753603 -13.927182 -15.993064 0.005901 -0.010916 0.002679 -17.906670 -63.549783 13.106953 79.152449 81.313240 72.480222 -5.199888 -7.030954 2.223936 0.005419 0.003304 0.002461
0.517122 126.400397 40.971816 177.298481 -18.471711 -3.966618 -1.410999 11.586368 4.032721 -0.131850 0.862267 0.309991 -0.205212 1.472066 0.521302 -1.306327 10.557936 3.671082 2.778230 18.895454 -4.496524 4.025276 -5.567298 -5.489979 3.505275 7.992190 -4.731859 -5.308642 -8.692148 -0.329822 -116.414065 -57.505988 138.999411 -20.687065 -4.762065 -27.597684 -1.338985 7.775660 0.646518 -0.766191 -9.312064 -4.484716 69.850479 -51.470799 -115.936900 27.793443 0.271884 35.175953 7.249793 -63.516599 1.042126 -115.211927 80.118399 -108.490649 2.764267 -13.894419 -15.981156 0.009857 -0.005713 0.004475 -17.925889 -63.563083 13.137073 79.176986 81.308908 72.521387 -5.199821 -7.035872 2.217500 0.003661 0.004044 0.001662
0.517357 126.399207 40.971291 177.275496 -18.462916 -3.967110 -1.405995 11.582779 4.040188 -0.122978 0.858561 0.309402 -0.213681 1.470177 0.526630 -1.308446 10.553269 3.692487 2.781261 18.904894 -4.524370 4.000046 -5.552095 -5.458514 3.514420 7.990279 -4.753054 -5.227985 -8.703243 -0.274736 -116.392712 -57.486416 138.980568 -20.700829 -4.762951 -27.631935 -1.382526 7.773762 0.643669 -0.710170 -9.311059 -4.519104 69.763368 -51.405535 -115.907612 27.862096 0.261332 35.269164 7.252540 -63.519218 1.043693 -115.164155 80.118399 -108.434344 2.777210 -13.886125 -15.975827 0.011171 -0.004956 0.005072 -17.926436 -63.573380 13.141409 79.209828 81.298424 72.565748 -5.204833 -7.040463 2.227925 -0.000535 0.003326 -0.000243
